<?xml version="1.0" encoding="UTF-8" standalone="no"?>
<svg
   xmlns:dc="http://purl.org/dc/elements/1.1/"
   xmlns:cc="http://creativecommons.org/ns#"
   xmlns:rdf="http://www.w3.org/1999/02/22-rdf-syntax-ns#"
   xmlns:svg="http://www.w3.org/2000/svg"
   xmlns="http://www.w3.org/2000/svg"
   xmlns:sodipodi="http://sodipodi.sourceforge.net/DTD/sodipodi-0.dtd"
   xmlns:inkscape="http://www.inkscape.org/namespaces/inkscape"
   width="1361.3457"
   height="1361.3457"
   viewBox="0 0 360.18938 360.18939"
   version="1.1"
   id="svg1306"
   inkscape:version="1.0.1 (3bc2e813f5, 2020-09-07)"
   sodipodi:docname="Logo.svg">
  <defs
     id="defs1300" />
  <sodipodi:namedview
     id="base"
     pagecolor="#ffffff"
     bordercolor="#666666"
     borderopacity="1.0"
     inkscape:pageopacity="0.0"
     inkscape:pageshadow="2"
     inkscape:zoom="0.0875"
     inkscape:cx="1969.5177"
     inkscape:cy="1832.9466"
     inkscape:document-units="px"
     inkscape:current-layer="layer1"
     inkscape:document-rotation="0"
     showgrid="false"
     showborder="false"
     units="px"
     fit-margin-top="0"
     fit-margin-left="0"
     fit-margin-right="0"
     fit-margin-bottom="0"
     inkscape:window-width="1920"
     inkscape:window-height="1027"
     inkscape:window-x="-8"
     inkscape:window-y="-8"
     inkscape:window-maximized="1" />
  <metadata
     id="metadata1303">
    <rdf:RDF>
      <cc:Work
         rdf:about="">
        <dc:format>image/svg+xml</dc:format>
        <dc:type
           rdf:resource="http://purl.org/dc/dcmitype/StillImage" />
        <dc:title></dc:title>
      </cc:Work>
    </rdf:RDF>
  </metadata>
  <g
     inkscape:label="Layer 1"
     inkscape:groupmode="layer"
     id="layer1"
     transform="translate(441.65424,78.041122)">
    <circle
       style="fill:none;fill-opacity:1;stroke:none;stroke-width:0.168803;stroke-dasharray:0.50641, 0.50641"
       id="path1267"
       cx="-261.55954"
       cy="102.05357"
       r="180.0947"
       inkscape:export-filename="C:\Users\Tolmindev\Downloads\2.png"
       inkscape:export-xdpi="76.159935"
       inkscape:export-ydpi="76.159935" />
    <path
       id="path1239"
       style="fill:#f9f9f9;fill-opacity:1;stroke-width:0.287248;stroke-dasharray:0.861732, 0.86173200000000005"
       d="m -261.59284,-46.623013 a 73.189277,148.67574 0 0 0 -56.8079,55.0171992 273.08209,134.00291 0 0 1 56.841,-2.934798 273.08209,134.00291 0 0 1 56.8415,2.935298 73.189277,148.67574 0 0 0 -56.8415,-55.0176992 73.189277,148.67574 0 0 0 -0.033,0 z m -32.9654,2.682899 a 149.9382,149.9382 0 0 0 -92.55,64.2924 273.34713,134.13297 0 0 1 55.6866,-10.5300988 86.018211,158.08804 0 0 1 36.8634,-53.7623012 z m 65.997,0 a 86.018211,158.08804 0 0 1 36.8628,53.7617012 273.34713,134.13297 0 0 1 55.6871,10.5306988 149.9382,149.9382 0 0 0 -92.5499,-64.2924 z m -32.9985,59.269802 a 239.36115,120.17043 0 0 0 -153.4811,27.955897 163.54534,167.3251 0 0 0 -10.064,57.789795 163.54534,167.3251 0 0 0 10.0635,57.7892 239.36116,120.17043 0 0 0 153.4816,27.95641 239.36116,120.17043 0 0 0 153.4816,-27.95641 163.54534,167.3251 0 0 0 10.063911,-57.7892 163.54534,167.3251 0 0 0 -10.063911,-57.789795 239.36115,120.17043 0 0 0 -153.4816,-27.955897 z m 2.4975,17.752497 c 3.3415,5.3e-4 6.6907,0.028 10.0418,0.085 1.3507,0.023 2.3564,0.6837 3.0225,1.9616 0.6968,1.2771 1.0513,2.9559 1.062,5.0027 0.046,8.8014 0.1248,17.186 0.1994,24.8762 0.01,0.9398 -0.063,1.8047 -0.217,2.5971 -0.1222,0.749 -0.375,1.4031 -0.7586,1.9659 -0.3836,0.5627 -0.898,1.0128 -1.5431,1.3517 -0.6453,0.2961 -1.4546,0.4376 -2.4251,0.4276 -2.0052,-0.021 -4.0099,-0.035 -6.0111,-0.044 8e-4,1.802799 0.01,10.414199 0.01,12.217099 -2.3433,-0.01 -4.6919,-0.01 -7.0352,-0.01 0.06,-15.052899 0.1363,-31.005399 0.3173,-50.426899 1.1118,-0.01 2.225,-0.01 3.3388,-0.01 z m -10.7472,0.088 c 1.5959,-0.026 2.7411,0.6529 3.4453,2.0126 0.735,1.305 1.0919,3.0763 1.0682,5.2721 -0.147,13.5983 -0.243,25.364 -0.3158,36.635599 -0.01,0.8871 -0.092,1.7272 -0.2599,2.5217 -0.1674,0.7527 -0.4481,1.4187 -0.8429,2.0005 -0.3948,0.5816 -0.9198,1.0581 -1.575,1.4325 -0.6549,0.3328 -1.4729,0.5021 -2.4531,0.5096 -2.7408,0.02 -5.5007,0.049 -8.259,0.087 -0.9864,0.013 -1.8081,-0.1386 -2.4618,-0.4564 -0.6533,-0.3587 -1.1734,-0.8223 -1.5591,-1.3927 -0.3856,-0.5705 -0.654,-1.2269 -0.8046,-1.9725 -0.1495,-0.7871 -0.2157,-1.6216 -0.1979,-2.5046 0.2289,-11.346899 0.5349,-22.815499 0.9193,-36.490799 0.062,-2.1881 0.4772,-3.9687 1.2387,-5.3017 0.7958,-1.388 1.9922,-2.118 3.5951,-2.1635 2.8252,-0.08 5.6497,-0.1434 8.4625,-0.1891 z m 31.8591,0.2934 c 2.4571,0.091 4.9252,0.1997 7.4057,0.3278 2.3221,19.2947 5.02,35.5195 7.5587,50.304199 -2.4586,-0.083 -4.9033,-0.1553 -7.3318,-0.2181 -0.043,-0.3243 -0.7056,-5.2625 -0.7488,-5.5872 -1.6388,-0.046 -3.2729,-0.088 -4.901,-0.1251 -0.1852,1.8809 -0.3727,3.7356 -0.5638,5.5719 -2.408,-0.047 -4.8103,-0.086 -7.2011,-0.1167 2.1169,-15.487899 3.7797,-30.349599 5.7821,-50.156799 z m -47.7914,0.1479 c -0.6215,19.8009 -1.0862,34.7382 -1.3855,50.164699 -2.4533,0.049 -4.9266,0.1061 -7.4062,0.1717 0.1434,-5.9224 0.3258,-11.999099 0.5462,-18.469199 -1.3048,0.047 -2.6147,0.097 -3.9279,0.1505 -0.2452,6.4572 -0.4476,12.524099 -0.6062,18.431399 -2.4964,0.076 -5.0161,0.1614 -7.5473,0.2588 0.4821,-15.110399 1.276,-30.235299 2.3207,-49.772599 2.4012,-0.1569 4.7923,-0.2995 7.1645,-0.4289 -0.3656,8.274 -0.6942,15.6967 -0.9943,22.9986 1.3017,-0.058 2.5998,-0.1129 3.8933,-0.1643 0.2698,-7.3215 0.5642,-14.7386 0.8919,-23.0306 2.3592,-0.1157 4.7119,-0.2188 7.0508,-0.3101 z m 63.4597,0.6749 c 2.4808,0.1699 4.9772,0.3601 7.4925,0.5726 1.4717,8.1468 3.0452,15.7239 4.668,22.8843 1.0795,-7.1543 2.054,-14.1004 3.18741,-22.1538 2.57349,0.2614 5.16789,0.5466 7.78759,0.8575 0.6231,18.8042 1.7885,34.6046 2.4443,48.971499 -2.5316,-0.1725 -5.0359,-0.3294 -7.5148,-0.4723 -0.2676,-6.9911 -0.6028,-13.811799 -0.9705,-21.603799 -1.2839,6.3844 -2.5764,12.337299 -3.963,18.191199 -1.7922,-5.9878 -3.5974,-12.235899 -5.3702,-18.849999 0.2907,7.8439 0.5571,14.727799 0.7674,21.774399 -2.4207,-0.109 -4.8234,-0.2053 -7.2074,-0.2915 -0.3531,-14.683299 -1.0027,-30.767899 -1.3213,-49.880099 z m -89.8638,0.8644 c 0.9324,19.0056 2.2344,34.5625 4.0184,49.250399 -2.5076,0.1023 -5.0401,0.2174 -7.5882,0.3466 -0.1576,-1.7937 -0.3081,-3.6076 -0.4511,-5.4468 -1.7245,0.097 -3.4608,0.2006 -5.2059,0.3123 -0.3204,1.8602 -0.6341,3.6906 -0.9421,5.5009 -2.5871,0.1564 -5.203,0.3299 -7.8398,0.5241 2.9554,-14.025799 6.7092,-31.161999 10.2635,-49.823899 2.603,-0.241 5.188,-0.4617 7.7452,-0.6636 z m -16.4615,1.5447 c -1.7212,19.1862 -2.992,34.5104 -3.7212,49.107199 -2.688,0.2082 -5.4078,0.4392 -8.153,0.6958 0.6606,-11.8811 1.7461,-24.501699 3.2106,-39.391199 -1.4063,0.172 -2.8217,0.3517 -4.2452,0.5401 -1.552,14.8574 -2.6964,27.467099 -3.3895,39.285799 -2.7778,0.2863 -5.5905,0.6022 -8.433,0.9515 0.9135,-14.192 2.5532,-29.565899 4.8472,-48.556399 6.8029,-1.0678 13.4654,-1.928 19.8841,-2.6328 z m 138.2815,0.8821 c 2.6949,0.3712 5.4156,0.7699 8.169,1.1967 3.2123,18.5489 7.5338,34.942199 11.08969,48.886499 -2.85207,-0.3053 -5.66068,-0.5874 -8.42989,-0.848 0.4115,2.0069 -1.51539,-7.4012 -1.1039,-5.3946 -1.86029,-0.1849 -3.7034,-0.3606 -5.5304,-0.5265 -0.1233,1.7897 -0.2545,3.5528 -0.3953,5.298 -2.7053,-0.2257 -5.3755,-0.4318 -8.014,-0.6201 1.8756,-15.805699 2.5763,-28.013599 4.2148,-47.991999 z m -65.3542,5.3747 c -0.017,7.1657 -0.019,13.9576 -0.017,20.3819 1.1546,0.01 2.3102,0.014 3.4659,0.024 0.289,0 0.4654,-0.064 0.5292,-0.1984 0.095,-0.1802 0.143,-0.4514 0.1416,-0.8146 -0.022,-5.7928 -0.042,-11.91 -0.049,-18.3021 -7.9e-4,-0.7019 -0.2067,-1.058 -0.617,-1.0625 -1.1521,-0.012 -2.3034,-0.021 -3.4541,-0.028 z m -17.216,0.1143 c -0.9007,0.017 -1.8025,0.035 -2.7047,0.055 -0.4115,0.01 -0.6253,0.3667 -0.6398,1.0671 -0.2313,11.1826 -0.4174,20.9647 -0.5648,30.524399 -0.01,0.3411 0.024,0.5964 0.086,0.7652 0.096,0.1265 0.2903,0.1865 0.5839,0.1825 0.8972,-0.012 1.794,-0.023 2.6893,-0.034 0.2929,0 0.4723,-0.068 0.539,-0.1971 0.099,-0.1706 0.1513,-0.4273 0.1555,-0.7689 0.117,-9.555099 0.2655,-19.373499 0.4537,-30.551399 0.012,-0.7011 -0.1876,-1.0504 -0.5984,-1.043 z m 38.9397,10.336 c -0.445,6.123 -0.8815,11.8374 -1.344,17.4318 1.0965,0.03 2.1956,0.062 3.2969,0.096 -0.6545,-5.5801 -1.313,-11.4038 -1.9529,-17.5281 z m -83.3659,1.6115 c -0.9678,6.0079 -1.9348,11.8902 -2.8262,17.3393 1.1716,-0.08 2.3388,-0.1559 3.5011,-0.2286 -0.2839,-5.4547 -0.5072,-11.12 -0.6749,-17.1107 z m 132.226,2.2575 c -0.1994,5.893 -0.3863,11.2617 -0.633,16.639099 1.2286,0.1236 2.46451,0.2516 3.7078,0.3839 -1.0162,-5.383999 -2.0691,-11.081499 -3.0748,-17.022999 z m -81.8637,38.365099 c -0.1015,18.319496 -0.1665,37.441396 -0.4398,56.442996 3.862,0.026 7.6907,0.023 11.5538,-0.01 -0.1211,4.5354 -0.2606,9.1834 -0.4201,14.0081 -7.7242,0.094 -15.2478,0.014 -23.0027,-0.226 0.1354,-25.7641 -0.052,-46.7058 0.1777,-70.142896 4.0427,-0.037 8.1214,-0.061 12.1311,-0.074 z m 15.4822,0.01 c 3.9102,0.017 7.8662,0.047 11.8102,0.092 0.1137,24.608096 -0.3835,43.105696 -1.7069,69.955596 -3.8214,0.1489 -7.5955,0.2606 -11.3792,0.3323 0.981,-26.5552 1.2774,-46.1878 1.2759,-70.379696 z m -32.5334,0.1172 c -0.3151,27.345996 0,40.308196 0.035,69.926996 -3.9144,-0.1511 -7.8227,-0.3379 -11.7947,-0.5535 -2.2659,-10.6691 -4.6826,-20.4991 -7.0528,-29.9133 0.2047,9.697 0.4906,18.7852 0.7984,29.5553 -3.6171,-0.2172 -7.2173,-0.4487 -10.9125,-0.6903 -1.2215,-25.6775 -1.9886,-43.6158 -1.4521,-67.613996 3.9737,-0.1516 7.9229,-0.2736 11.8039,-0.3725 1.9309,9.287596 3.9733,18.017296 6.1149,27.043596 -0.068,-9.0327 -0.041,-17.7914 0.108,-27.185996 4.139,-0.084 8.2839,-0.1479 12.3517,-0.1963 z m 49.2683,0.039 c 3.7808,0.056 7.6081,0.1281 11.4588,0.2217 2.2093,9.487696 4.2141,18.109196 6.0854,27.116096 0.2571,-8.9569 0.2958,-17.6009 0.1576,-26.945696 4.2131,0.1278 8.4975,0.2847 12.8457,0.4797 0.5392,24.650196 -0.6362,40.944796 -2.9977,67.013896 -4.2286,0.2911 -8.256,0.5689 -12.3641,0.8351 -1.3809,-10.4082 -2.8518,-19.6806 -4.6432,-29.254 -0.4107,9.6018 -0.9891,18.9889 -1.698,29.6492 -3.6171,0.2154 -7.1725,0.4075 -10.7271,0.5721 1.4631,-26.8698 2.0468,-44.9858 1.8826,-69.688096 z m 35.84441,1.1263 c 9.08649,0.4681 18.58429,1.1176 28.5796,2.0439 0.19349,4.081196 0.30078,8.029596 0.3116,11.947596 -5.18422,-0.3959 -10.22881,-0.7181 -15.14071,-0.9824 -7.9e-4,5.1067 -0.1266,10.0644 -0.3787,15.0751 3.7184,0.1122 7.51481,0.2548 11.3858,0.4366 -0.20881,3.5626 -0.493,7.0921 -0.8459,10.6677 -3.8311,-0.1003 -7.5921,-0.1624 -11.2753,-0.1974 -0.3874,4.6424 -0.86,9.2607 -1.3999,14.0611 4.5751,-0.1061 9.2771,-0.177 14.07771,-0.1866 -0.5578,3.9741 -1.14851,7.8836 -1.773,12.0251 -9.19961,0.3606 -18.28611,0.9453 -26.74671,1.5197 2.5345,-25.7987 3.8231,-41.8555 3.20551,-66.410396 z m -128.28681,0.181 c 2.4656,0.04 4.2567,0.7525 5.4085,2.113 1.3758,1.489596 2.0387,3.570796 2.0123,6.200196 -0.166,16.4928 0.3689,30.9605 1.296,48.2214 0.072,1.3454 0,2.6318 -0.2093,3.8534 -0.215,1.1567 -0.6315,2.1807 -1.249,3.0625 -0.6179,0.8821 -1.4668,1.587 -2.5518,2.1114 -1.0908,0.4585 -2.477,0.6313 -4.1796,0.5241 -4.7493,-0.2992 -9.6317,-0.5881 -14.5769,-0.8315 -1.7711,-0.087 -3.2893,-0.407 -4.5444,-0.952 -1.2622,-0.6072 -2.3127,-1.3478 -3.1419,-2.2215 -0.8293,-0.8741 -1.4643,-1.852 -1.8976,-2.9347 -0.4404,-1.1425 -0.7327,-2.3299 -0.8723,-3.5671 -1.769,-15.6861 -2.6699,-29.5736 -2.4686,-45.1028 0.032,-2.5066 0.8208,-4.5982 2.3229,-6.242 1.5666,-1.709696 3.9645,-2.744796 7.1324,-3.024196 5.5792,-0.4919 11.0707,-0.8774 16.4212,-1.1859 0.3798,-0.022 0.7459,-0.03 1.0981,-0.024 z m -6.8771,11.921296 c -1.7244,0.09 -3.4611,0.1881 -5.2084,0.295 -0.7973,0.049 -1.2004,0.4887 -1.2015,1.3126 -0.019,13.1247 0.6139,25.2752 1.7363,38.7237 0.04,0.4828 0.1311,0.8472 0.2708,1.0919 0.1941,0.1847 0.5588,0.2842 1.0935,0.2961 1.6335,0.037 3.2577,0.079 4.87,0.1241 0.5276,0.015 0.842,-0.068 0.9456,-0.249 0.1581,-0.2416 0.2185,-0.6091 0.1835,-1.1007 -0.979,-13.7176 -1.5407,-26.0035 -1.5152,-39.302 0,-0.8334 -0.3878,-1.2327 -1.1746,-1.1917 z m 199.9465,72.2829 a 273.34713,134.13297 0 0 1 -56.7914,10.913 86.018211,158.08804 0 0 1 -38.6747,56.58509 149.9382,149.9382 0 0 0 95.4661,-67.49809 z m -254.8878,5.3e-4 a 149.9382,149.9382 0 0 0 95.4665,67.49756 86.018211,158.08804 0 0 1 -38.6752,-56.58509 273.34713,134.13297 0 0 1 -56.7913,-10.9125 z m 69.8024,12.359 a 73.189277,148.67574 0 0 0 57.6415,57.05629 73.189277,148.67574 0 0 0 57.6409,-57.05629 273.08209,134.00291 0 0 1 -57.6409,3.0189 273.08209,134.00291 0 0 1 -57.6415,-3.0189 z"
       inkscape:export-filename="C:\Users\Tolmindev\Downloads\2.png"
       inkscape:export-xdpi="76.159935"
       inkscape:export-ydpi="76.159935" />
  </g>
</svg>
